<svg xmlns="http://www.w3.org/2000/svg" width="25" height="25" viewBox="0 0 59.856 90.861">
  <g id="Ballon" transform="translate(-87.356)">
    <path id="Path_1" data-name="Path 1" d="M274.146,411.733a1.375,1.375,0,0,1-1.76-.588c-1.03-1.849-3.392-5.444-6.62-6.43a13.826,13.826,0,0,0-6.789-.541,53.776,53.776,0,0,1-6.142.35c-6.555,0-10.165-5.071-10.165-14.279h2.749a17.806,17.806,0,0,0,1.549,8.047,6.111,6.111,0,0,0,5.867,3.483,51.354,51.354,0,0,0,5.857-.335,16.369,16.369,0,0,1,7.876.646c4.166,1.272,7,5.516,8.22,7.718a1.377,1.377,0,0,1-.644,1.93Z" transform="translate(-127.752 -320.99)" fill="#ffd321"/>
    <path id="Path_2" data-name="Path 2" d="M87.356,29.428a29.428,29.428,0,0,1,58.857,0c0,21.883-13.176,38.483-29.428,38.483S87.356,50.053,87.356,29.428Z" fill="#eb161c"/>
    <path id="Path_3" data-name="Path 3" d="M127.231,65.983C110.978,65.983,97.8,48.125,97.8,27.5A29.406,29.406,0,0,1,111.611,2.557,29.437,29.437,0,0,0,87.357,31.532c0,20.625,13.176,38.483,29.428,38.483a24.337,24.337,0,0,0,13.628-4.248A23.6,23.6,0,0,1,127.231,65.983Z" transform="translate(-0.001 -2.103)" fill="#c60a18"/>
    <path id="Path_4" data-name="Path 4" d="M211.252,382.037h10.916a2.258,2.258,0,0,0,2.258-2.258h0a2.258,2.258,0,0,0-2.258-2.258H211.252a2.258,2.258,0,0,0-2.258,2.258h0A2.259,2.259,0,0,0,211.252,382.037Z" transform="translate(-100.052 -310.524)" fill="#eb161c"/>
    <path id="Path_5" data-name="Path 5" d="M214.452,379.776a2.258,2.258,0,0,1,2.258-2.258h-5.458a2.258,2.258,0,1,0,0,4.517h5.458A2.258,2.258,0,0,1,214.452,379.776Z" transform="translate(-100.052 -310.523)" fill="#c60a18"/>
    <circle id="Ellipse_1" data-name="Ellipse 1" cx="5.681" cy="5.681" r="5.681" transform="translate(125.157 14.275)" fill="#f94b58"/>
  </g>
</svg>
